<?xml version="1.0" encoding="UTF-8"?>
<svg width="32px" height="32px" viewBox="0 0 32 32" version="1.1" xmlns="http://www.w3.org/2000/svg" xmlns:xlink="http://www.w3.org/1999/xlink">
    <!-- Generator: Sketch 53.1 (72631) - https://sketchapp.com -->
    <title>Barcelona icon</title>
    <desc>Created with Sketch.</desc>
    <g id="Page-1" stroke="none" stroke-width="1" fill="none" fill-rule="evenodd">
        <g id="Barcelona-icon" fill="#000000" fill-rule="nonzero">
            <path d="M8.56,14.71 C9.1588567,11.7959998 11.4359998,9.5188567 14.35,8.92 C14.35,8.87 14.35,8.82 14.35,8.77 C14.35,5.48942859 11.6905714,2.83 8.41,2.83 C5.12942859,2.83 2.47,5.48942859 2.47,8.77 C2.47,12.0505714 5.12942859,14.71 8.41,14.71 L8.56,14.71 Z M3.42,8.77 C3.50927463,6.18976409 5.54835885,4.10177505 8.12575479,3.95138374 C10.7031507,3.80099243 12.9712389,5.63765752 13.36,8.19 C10.7087571,9.00347696 8.63347696,11.0787571 7.82,13.73 C5.31434465,13.4220097 3.43133829,11.2945128 3.43,8.77 L3.42,8.77 Z" id="Shape"></path>
            <path d="M10.16,14.45 C10.0047145,14.9527875 9.91727484,15.4740623 9.9,16 C9.9,16 9.9,16.1 9.9,16.15 C9.9,16.2 9.9,16.25 9.9,16.3 C9.97391743,19.4666058 12.5233942,22.0160826 15.69,22.09 L16,22.09 C19.1666058,22.0160826 21.7160826,19.4666058 21.79,16.3 C21.79,16.3 21.79,16.2 21.79,16.15 C21.79,16.1 21.79,16.05 21.79,16 C21.689956,12.8529335 19.1478158,10.3327461 16,10.26 L15.7,10.26 C13.1467026,10.320073 10.9186976,12.0081998 10.17,14.45 L10.16,14.45 Z M15.77,11.21 L16,11.21 C18.1409268,11.2684764 20.0068478,12.6840026 20.64,14.73 C20.7777497,15.1842412 20.8517894,15.6554026 20.86,16.13 L20.86,16.32 C20.8143437,18.4839349 19.3815502,20.3728008 17.31,21 C16.8590594,21.1372146 16.3912736,21.2112527 15.92,21.22 L15.72,21.22 C13.070602,21.1469516 10.9385053,19.0192419 10.86,16.37 L10.86,16.11 C10.9184764,13.9690732 12.3340026,12.1031522 14.38,11.47 C14.8290117,11.3192066 15.2968411,11.2316989 15.77,11.21 L15.77,11.21 Z" id="Shape"></path>
            <path d="M23.13,17.69 L23.13,17.69 C22.5311433,20.6040002 20.2540002,22.8811433 17.34,23.48 C17.34,23.53 17.34,23.58 17.34,23.63 C17.34,26.9105714 19.9994286,29.57 23.28,29.57 C26.5605714,29.57 29.22,26.9105714 29.22,23.63 C29.22,20.3494286 26.5605714,17.69 23.28,17.69 L23.13,17.69 Z M28.27,23.63 C28.1807254,26.2102359 26.1416411,28.2982249 23.5642452,28.4486163 C20.9868493,28.5990076 18.7187611,26.7623425 18.33,24.21 C20.9812429,23.396523 23.056523,21.3212429 23.87,18.67 C26.3756553,18.9779903 28.2586617,21.1054872 28.26,23.63 L28.27,23.63 Z" id="Shape"></path>
            <path d="M8.41,29.57 C11.6905714,29.57 14.35,26.9105714 14.35,23.63 C14.35,23.58 14.35,23.53 14.35,23.48 C11.4359998,22.8811433 9.1588567,20.6040002 8.56,17.69 L8.41,17.69 C5.12666716,17.69 2.465,20.3516672 2.465,23.635 C2.465,26.9183328 5.12666716,29.58 8.41,29.58 L8.41,29.57 Z M7.83,18.68 C8.64630535,21.3274106 10.7211189,23.398479 13.37,24.21 C13.0757064,26.8079315 10.8295882,28.7404876 8.21683021,28.6437781 C5.60407224,28.5470685 3.50696917,26.4537508 3.40553932,23.8411718 C3.30410947,21.2285928 5.2326044,18.9789867 7.83,18.68 L7.83,18.68 Z" id="Shape"></path>
            <path d="M0,23.63 C0.0032522454,27.4893721 2.63890694,30.848705 6.3866443,31.7702409 C10.1343817,32.6917769 14.02736,30.9377779 15.82,27.52 C17.4960438,30.7158826 21.0279333,32.4820053 24.5903121,31.9055978 C28.152691,31.3291903 30.9474144,28.5393958 31.5301094,24.97804 C32.1128044,21.4166842 30.3529191,17.8816826 27.16,16.2 C30.3642933,14.5274791 32.1372527,10.9907781 31.5601283,7.42262047 C30.9830038,3.85446284 28.1855372,1.05699618 24.6173795,0.479871715 C21.0492219,-0.0972527484 17.5125209,1.67570673 15.84,4.88 C14.1692247,1.67153887 10.6301305,-0.104805538 7.05910634,0.47268834 C3.48808217,1.05018222 0.689267306,3.85147172 0.114929662,7.42300487 C-0.459407982,10.994538 1.32006352,14.532061 4.53,16.2 C1.75324083,17.6388158 0.007209172,20.5026161 0,23.63 Z M8.39,16.2 C4.28652431,16.2 0.96,12.8734757 0.96,8.77 C0.96,4.66652431 4.28652431,1.34 8.39,1.34 C12.4934757,1.34 15.82,4.66652431 15.82,8.77 C15.82,4.66652431 19.1465243,1.34 23.25,1.34 C27.3534757,1.34 30.68,4.66652431 30.68,8.77 C30.68,12.8734757 27.3534757,16.2 23.25,16.2 C27.3534757,16.2 30.68,19.5265243 30.68,23.63 C30.68,27.7334757 27.3534757,31.06 23.25,31.06 C19.1465243,31.06 15.82,27.7334757 15.82,23.63 C15.82,27.7334757 12.4934757,31.06 8.39,31.06 C4.28652431,31.06 0.96,27.7334757 0.96,23.63 C0.96,19.5265243 4.28652431,16.2 8.39,16.2 Z" id="Shape"></path>
            <path d="M23.13,14.71 L23.28,14.71 C26.5605714,14.71 29.22,12.0505714 29.22,8.77 C29.22,5.48942859 26.5605714,2.83 23.28,2.83 C19.9994286,2.83 17.34,5.48942859 17.34,8.77 C17.34,8.82 17.34,8.87 17.34,8.92 C20.2540002,9.5188567 22.5311433,11.7959998 23.13,14.71 Z M23.28,3.78 C25.8602359,3.86927463 27.9482249,5.90835885 28.0986163,8.48575479 C28.2490076,11.0631507 26.4123425,13.3312389 23.86,13.72 C23.0436947,11.0725894 20.9688811,9.00152098 18.32,8.19 C18.6186889,5.67641152 20.7487285,3.78256584 23.28,3.78 Z" id="Shape"></path>
        </g>
    </g>
</svg>